#!OML:ASF I:\Actors\actors\Patient Classification 1\Patient 1\Session 1\Subject1.ASF
:FULLY-SPECIFIED
:DEGREES
155
root 0.863342 17.5183 8.59505 10.4141 0.213971 -7.83416
lowerback 0.122698 0.100588 8.59692
upperback -10.3609 0.585325 -0.89376
thorax -11.1895 -0.574714 -5.83821
lowerneck -6.56891 -9.62739 -7.24692
upperneck 19.302 -14.7932 11.3868
head 8.47319 -6.65184 3.47213
rclavicle -6.36111e-015 5.56597e-015
rhumerus -49.3176 -23.2749 -76.4521
rradius 32.8684
rwrist 23.3197
rhand 11.9373 -36.6364
rfingers 7.12502
rthumb 36.9614 -62.7108
lclavicle -6.36111e-015 5.56597e-015
lhumerus -53.0252 24.644 62.0059
lradius 29.8758
lwrist -8.43608
lhand -10.5331 -12.9977
lfingers 7.12502
lthumb 15.4702 16.4033
rfemur -5.9441 25.6759 23.3752
rtibia 2.82786
rfoot -11.6011 -23.0437
rtoes -0.358001
lfemur 2.15304 -46.9538 -10.5828
ltibia -3.96851
lfoot -24.1612 53.2155
ltoes 12.2535
156
root 0.862136 17.5161 8.59527 10.3388 0.177354 -8.05192
lowerback 0.200373 0.125074 8.85746
upperback -10.321 0.644036 -0.857411
thorax -11.1876 -0.566937 -5.95144
lowerneck -6.69569 -9.51944 -7.09088
upperneck 19.3823 -14.6674 11.3935
head 8.49872 -6.57278 3.45986
rclavicle -1.98785e-015 -2.46493e-014
rhumerus -49.1405 -22.3432 -77.5182
rradius 34.0573
rwrist 21.5332
rhand 11.8035 -37.5154
rfingers 7.12502
rthumb 36.8348 -63.6224
lclavicle -1.98785e-015 -2.46493e-014
lhumerus -52.8832 24.1082 62.6565
lradius 30.4849
lwrist -6.90238
lhand -10.5661 -12.3328
lfingers 7.12502
lthumb 15.4385 17.0706
rfemur -5.89116 25.7184 23.6765
rtibia 2.89299
rfoot -11.6923 -23.0211
rtoes -0.205399
lfemur 2.30837 -46.9249 -10.3986
ltibia -4.03532
lfoot -24.2969 53.2118
ltoes 12.4239
157
root 0.861074 17.5156 8.59603 10.3247 0.201487 -8.06429
lowerback 0.203155 0.13454 8.93307
upperback -10.3038 0.658524 -0.887875
thorax -11.1691 -0.567312 -6.02893
lowerneck -6.76138 -9.39122 -6.96999
upperneck 19.3708 -14.5116 11.4581
head 8.48651 -6.48251 3.47933
rclavicle 7.15625e-015 -3.02153e-014
rhumerus -49.0102 -21.2845 -78.6831
rradius 35.4249
rwrist 19.7133
rhand 11.5615 -38.3454
rfingers 7.12502
rthumb 36.6059 -64.5108
lclavicle 7.15625e-015 -3.02153e-014
lhumerus -52.7832 23.354 63.4625
lradius 31.3306
lwrist -5.12215
lhand -10.4681 -11.7929
lfingers 7.12502
lthumb 15.5328 17.6032
rfemur -5.86647 25.7004 23.7085
rtibia 2.89616
rfoot -11.7151 -23.0042
rtoes -0.270054
lfemur 2.34013 -46.9731 -10.4037
ltibia -4.03795
lfoot -24.407 53.2067
ltoes 12.5223
158
root 0.859316 17.516 8.59668 10.3396 0.209213 -7.9927
lowerback 0.178784 0.151519 8.92864
upperback -10.3017 0.672498 -0.958056
thorax -11.1492 -0.563301 -6.10472
lowerneck -6.79182 -9.22829 -6.83993
upperneck 19.3074 -14.3134 11.5718
head 8.44921 -6.37057 3.52076
rclavicle -3.77691e-015 0
rhumerus -48.9106 -20.1113 -79.9597
rradius 36.9058
rwrist 17.7664
rhand 11.2252 -38.9164
rfingers 7.12502
rthumb 36.2874 -65.1618
lclavicle -3.77691e-015 0
lhumerus -52.6877 22.273 64.5363
lradius 32.4767
lwrist -2.5916
lhand -10.5196 -10.9441
lfingers 7.12502
lthumb 15.4833 18.4559
rfemur -5.88068 25.7166 23.6202
rtibia 2.89226
rfoot -11.705 -23.0152
rtoes -0.489872
lfemur 2.31178 -47.016 -10.4725
ltibia -4.0147
lfoot -24.3685 53.2504
ltoes 12.3652
159
root 0.85787 17.5163 8.59775 10.3412 0.212055 -7.93592
lowerback 0.113487 0.162502 8.93093
upperback -10.2677 0.674056 -1.01777
thorax -11.0695 -0.561192 -6.17058
lowerneck -6.86671 -9.0741 -6.56869
upperneck 19.2305 -14.107 11.5221
head 8.39158 -6.2574 3.4842
rclavicle -9.93923e-015 4.77083e-015
rhumerus -48.77 -18.7728 -81.369
rradius 38.5101
rwrist 15.653
rhand 10.6484 -39.7316
rfingers 7.12502
rthumb 35.7411 -66.1113
lclavicle -9.93923e-015 4.77083e-015
lhumerus -52.5588 21.0654 65.7809
lradius 33.8541
lwrist 0.521995
lhand -10.8442 -9.8488
lfingers 7.12502
lthumb 15.1706 19.5751
rfemur -5.86846 25.6922 23.56
rtibia 2.87361
rfoot -11.7724 -23.0121
rtoes -0.393432
lfemur 2.32235 -47.0759 -10.5526
ltibia -3.99729
lfoot -24.3327 53.3182
ltoes 12.2178
